inDegrees=no
num_controls=7
num_derivatives=13
num_iterations=147
num_multipliers=7
num_parameters=0
num_slacks=7
num_states=26
objective=0.448317
objective_accelerations=0.048940
objective_balance=0.007439
objective_effort=0.036411
objective_height=0.350587
objective_ligament=0.004940
solver_duration=2106.358179
status=Solve_Succeeded
success=true
DataType=double
version=3
OpenSimVersion=4.5
endheader
time	/jointset/ground_pelvis/pelvis_tilt/value	/jointset/ground_pelvis/pelvis_tx/value	/jointset/ground_pelvis/pelvis_ty/value	/jointset/hip_l/hip_flexion_l/value	/jointset/hip_l/hip_adduction_l/value	/jointset/hip_l/hip_rotation_l/value	/jointset/back/lumbar_extension/value	/jointset/patellofemoral_l/patellar_flexion_l/value	/jointset/knee_l/knee_flexion_l/value	/jointset/knee_l/knee_adduction_l/value	/jointset/knee_l/knee_rotation_l/value	/jointset/ankle_l/ankle_angle_l/value	/jointset/subtalar_l/subtalar_angle_l/value	/jointset/ground_pelvis/pelvis_tilt/speed	/jointset/ground_pelvis/pelvis_tx/speed	/jointset/ground_pelvis/pelvis_ty/speed	/jointset/hip_l/hip_flexion_l/speed	/jointset/hip_l/hip_adduction_l/speed	/jointset/hip_l/hip_rotation_l/speed	/jointset/back/lumbar_extension/speed	/jointset/patellofemoral_l/patellar_flexion_l/speed	/jointset/knee_l/knee_flexion_l/speed	/jointset/knee_l/knee_adduction_l/speed	/jointset/knee_l/knee_rotation_l/speed	/jointset/ankle_l/ankle_angle_l/speed	/jointset/subtalar_l/subtalar_angle_l/speed	/forceset/tau_hip_flexion_l	/forceset/tau_hip_adduction_l	/forceset/tau_hip_rotation_l	/forceset/tau_knee_flexion_l	/forceset/tau_ankle_angle_l	/forceset/tau_subtalar_angle_l	/forceset/tau_lumbar_extension	lambda_cid13_p0	lambda_cid13_p1	lambda_cid13_p2	lambda_cid13_p3	lambda_cid13_p4	lambda_cid13_p5	lambda_cid14_p0	/jointset/ground_pelvis/pelvis_tilt/accel	/jointset/ground_pelvis/pelvis_tx/accel	/jointset/ground_pelvis/pelvis_ty/accel	/jointset/hip_l/hip_flexion_l/accel	/jointset/hip_l/hip_adduction_l/accel	/jointset/hip_l/hip_rotation_l/accel	/jointset/back/lumbar_extension/accel	/jointset/patellofemoral_l/patellar_flexion_l/accel	/jointset/knee_l/knee_flexion_l/accel	/jointset/knee_l/knee_adduction_l/accel	/jointset/knee_l/knee_rotation_l/accel	/jointset/ankle_l/ankle_angle_l/accel	/jointset/subtalar_l/subtalar_angle_l/accel	gamma_cid13_p0	gamma_cid13_p1	gamma_cid13_p2	gamma_cid13_p3	gamma_cid13_p4	gamma_cid13_p5	gamma_cid14_p0
1.5	-0.4496265451117767	-0.0748717876623622	0.7625080685458673	1.269040286659739	-0.3100459643987216	-0.04649371707306522	-0.3457885767142755	0.6884751640833737	0.6884751640833237	-0.1735841394861115	0.174531561180143	0.03486852047894218	-0.04980594948537942	0.7342032181031902	0.2634401736146946	0.4885581945077485	-2.338401365664996	0.03223197334482876	-0.6090851993297233	0.5642446319714643	-1.744341300210307	-1.744341300210238	0.005125225274283954	-9.488516480221529e-05	-0.2334822159718267	0.006745015129254462	-0.252128804454115	0.01776650812687325	-0.02098658488409971	-0.1996874092187567	0.1394530999424256	0.04416474280928122	0.2267427102369275	5.830551796105231	-22.91665277281308	6.352325376781356	-5.325143687702911	-610.9981332669628	-59.93859343049825	-28.33486537467397	0.6425232333860922	0.6816426311625936	-0.2893561495051823	-1.552533749875361	0.5815449531167626	-0.3021230354675682	1.76422568596913	-1.095140713004787	-1.095140713004813	0.02838454996670781	-0.02136347521015888	-0.1294932120362714	0.5617379640802822	2.567306261825408e-07	7.6052054449914e-07	-1.266667103962638e-06	-6.645591564490565e-08	3.404792842218794e-07	-3.95689812948072e-08	2.889736401904922e-07
1.51	-0.442252750094202	-0.07220351847173134	0.7673782433940832	1.245580859436697	-0.3096955570830304	-0.05259952042055487	-0.3400593217629375	0.6709792839244416	0.6709792839244187	-0.1735332556199596	0.1745309918907114	0.03252737894245611	-0.04971148232503183	0.740454625437813	0.2701835760301551	0.4853792336247214	-2.353163063649987	0.03785285811844388	-0.6119729559048532	0.5815317047655812	-1.754592103662083	-1.754592103662034	0.005023593544230867	-3.346260715498976e-05	-0.2346991684166949	0.0121524265465337	-0.2441274833184025	0.01704896284835934	-0.02084851608672074	-0.1982765341907691	0.1393457529360603	0.04355573173803777	0.2205330084822849	6.035045128247679	-22.79311249853823	6.452733841181068	-5.267262026970358	-606.5332420461733	-60.25186638967605	-29.33560377088309	0.6012927554561271	0.6661991822800881	-0.3467504855657182	-1.389814346296726	0.5527760381066372	-0.2665188666927516	1.699750046544314	-0.9536962308715301	-0.9536962308745102	-0.0334484074637831	0.01786185558656814	-0.1107444418567022	0.5307136985131791	1.399072083324091e-07	1.014251075774817e-06	-7.128588764929367e-07	5.465051602219088e-08	2.701988102856709e-07	3.799833791248187e-08	2.310981745527912e-07
1.52	-0.4348194723488901	-0.06946871322983741	0.7722137117478961	1.221983449929108	-0.3092888577598786	-0.05873108471342758	-0.334159435689576	0.6533881665170705	0.6533881665170741	-0.1734841903457028	0.1745306301737218	0.03017547824529238	-0.04956284685691915	0.7460997636506667	0.2767473838673076	0.4816168956271229	-2.36599782257441	0.04349037483696943	-0.614237388406265	0.5983708563761522	-1.763388749898161	-1.763388749898132	0.00476150689527898	-5.337067613160219e-05	-0.2356340481073477	0.01757867668227028	-0.2361261621826905	0.01633141756984422	-0.02071044728934339	-0.1968656591627819	0.1392384059296944	0.042946720666793	0.2143233067276424	6.232023553035696	-22.67063933393237	6.556034426731422	-5.19721405872592	-602.1898535834135	-60.6210637216617	-30.31855388891263	0.5212694090322653	0.6457237155010053	-0.406031572419457	-1.167145937761789	0.5848713420988499	-0.1774582207239246	1.67464144925994	-0.8043092698652008	-0.8043092698651964	-0.003706433813053607	-0.0376296005349224	-0.07307866119319371	0.5655057077717477	7.476803369364224e-08	1.179311060541747e-06	-4.140671624816513e-07	1.233978409324001e-07	2.370451663223627e-07	8.968492491057964e-08	2.017996961417153e-07
1.53	-0.4273327878239472	-0.06666921468695659	0.777008693277434	1.198267353945177	-0.3088256831945317	-0.06488258245319282	-0.328093565016804	0.6357164821455764	0.6357164821455891	-0.1734382250558693	0.174529929369119	0.02781572172050552	-0.04935981494110737	0.7511295388676713	0.2831166616993957	0.4772865595020938	-2.376887003369211	0.04915181978742638	-0.6159751679124807	0.6147160993420367	-1.7706913519476	-1.770691351947548	0.004432095025584577	-9.3252140950633e-05	-0.2362613488404519	0.02303762342534781	-0.2280003115522322	0.01540536148781798	-0.02062188678386264	-0.1955927895862837	0.1393864206795362	0.04220273639694034	0.2079859193503013	6.50523736018713	-22.50480247275286	6.654599681379012	-5.174260957453035	-597.8872260958713	-60.93880958438783	-31.27944595723011	0.4777061187930789	0.6272090726871129	-0.4604129076794262	-0.99962971126892	0.5577551670390062	-0.1586774753721775	1.601388894819973	-0.6547604913626632	-0.6547604913593571	-0.04726975386456531	0.01199964249726436	-0.04915543360762208	0.5374173911351112	6.454336746694987e-08	1.250158589643136e-06	-3.862304940199302e-07	1.36513614913417e-07	2.433387792052607e-07	1.138732339364119e-07	2.028642666589283e-07
1.54	-0.4197990306386827	-0.06380708751463	0.7817575957906946	1.174452401041113	-0.3083056993605762	-0.07104880591998056	-0.3218668572794599	0.6179794667898122	0.6179794667898337	-0.1733954961227963	0.1745286631622551	0.0254513722575399	-0.04910192791115293	0.755514295715017	0.2892731097564591	0.4724010923716714	-2.3857692066012	0.05485222855867898	-0.617182533810767	0.6305382692906116	-1.776454946752217	-1.776454946752144	0.004114235543212913	-0.0001664511276634642	-0.2365526357430996	0.02854969951079959	-0.2198744609217735	0.01447930540579174	-0.02053332627838357	-0.1943199200097856	0.1395344354293779	0.04145875212708766	0.2016485319729607	6.77037700555822	-22.33969048903639	6.755723391312479	-5.133878370363028	-593.7119476865812	-61.31288920002469	-32.21402900505198	0.392265735100475	0.6031577604960817	-0.5170577734981092	-0.7657504251995686	0.5926641062579802	-0.07137549913800648	1.570026845797984	-0.4965078209011458	-0.4965078209011446	-0.001395956348506996	-0.04429310491367994	-0.005875895101911666	0.5761315762465981	5.449633211454676e-08	1.316266569223395e-06	-3.63465678527801e-07	1.481721744134758e-07	2.495404402260494e-07	1.37985524231039e-07	2.037831954617127e-07
